<svg xmlns="http://www.w3.org/2000/svg" width="518.356" height="346.904" viewBox="0 0 518.356 346.904">
  <g id="Group_16135" data-name="Group 16135" transform="translate(-1412 -309)">
    <g id="Group_16133" data-name="Group 16133" transform="translate(1412 309)">
      <g id="Group_16129" data-name="Group 16129" transform="translate(0)">
        <path id="Path_499" data-name="Path 499" d="M1926.332,572.088h-54.5A213.211,213.211,0,0,0,1854.8,424.906h38.65a4.025,4.025,0,0,0,4.025-4.025h0a4.025,4.025,0,0,0-4.025-4.025h-42.986a212.418,212.418,0,0,0-323.042-56.8h-65.4a4.025,4.025,0,0,0-4.025,4.025h0a4.025,4.025,0,0,0,4.025,4.025h56.522q-6.771,6.495-12.954,13.568h-89.563A4.024,4.024,0,0,0,1412,385.7h0a4.024,4.024,0,0,0,4.024,4.024h82.867a212.662,212.662,0,0,0-30.639,210.424h-10.6a4.024,4.024,0,0,0-4.025,4.024h0a4.024,4.024,0,0,0,4.025,4.025h14.015q2.2,4.9,4.629,9.659h-47.621a4.024,4.024,0,0,0-4.024,4.024h0a4.024,4.024,0,0,0,4.024,4.025h51.953a212.685,212.685,0,0,0,16.648,25.067h336.541a212.11,212.11,0,0,0,28.18-48.754h39.5a4.024,4.024,0,0,0,4.024-4.024h0a4.024,4.024,0,0,0-4.024-4.025h-36.376q2.519-6.906,4.568-14.028h56.644a4.024,4.024,0,0,0,4.024-4.024h0A4.024,4.024,0,0,0,1926.332,572.088Z" transform="translate(-1412 -309)" fill="#f9f8f8"/>
        <g id="Group_16075" data-name="Group 16075" transform="translate(261.913 14.075)">
          <g id="Group_16070" data-name="Group 16070" transform="translate(0 123.08)">
            <path id="Path_500" data-name="Path 500" d="M2816.488,1784.683h-25.729a3.363,3.363,0,0,1,3.363-3.363h19a3.363,3.363,0,0,1,3.364,3.363Z" transform="translate(-2735.596 -1579.883)" fill="#f2f2f2"/>
            <path id="Path_501" data-name="Path 501" d="M2830.8,1361.391h-13.539l4.4-125.413,2.957,1.966Z" transform="translate(-2756.004 -1159.954)" fill="#f2f2f2"/>
            <g id="Group_16069" data-name="Group 16069" transform="translate(0)">
              <path id="Path_502" data-name="Path 502" d="M2808.164,1784.683h-25.729a3.363,3.363,0,0,1,3.364-3.363h19a3.363,3.363,0,0,1,3.363,3.363Z" transform="translate(-2729.187 -1579.883)" fill="#f2f2f2"/>
              <g id="Group_16068" data-name="Group 16068">
                <g id="Group_16067" data-name="Group 16067">
                  <path id="Path_503" data-name="Path 503" d="M2838.373,1232.836l64.739,37.377-.708-3.68a3.037,3.037,0,0,0-1.123-1.828l-42.3-32.74a3.037,3.037,0,0,0-2.728-.508l-8.485,2.535a3.037,3.037,0,0,1-2.387-.28l-5.639-3.256Z" transform="translate(-2772.261 -1155.703)" fill="#f2f2f2"/>
                  <path id="Path_504" data-name="Path 504" d="M2615.632,1230.457l-64.739,37.377,3.534,1.225a3.052,3.052,0,0,0,2.156-.059l49.488-20.253a3.053,3.053,0,0,0,1.814-2.12l2.043-8.6a3.052,3.052,0,0,1,1.444-1.938l5.633-3.252Z" transform="translate(-2550.893 -1155.703)" fill="#f2f2f2"/>
                  <path id="Path_505" data-name="Path 505" d="M2807.21,980.152V905.4l-2.83,2.45a3.045,3.045,0,0,0-1.024,1.892l-7.2,52.991a3.045,3.045,0,0,0,.927,2.624l6.432,6.075a3.046,3.046,0,0,1,.954,2.214v6.508Z" transform="translate(-2739.727 -905.398)" fill="#f2f2f2"/>
                  <path id="Path_506" data-name="Path 506" d="M2823.783,1361.391h-12.426l4.4-125.413h3.625Z" transform="translate(-2751.458 -1159.954)" fill="#f2f2f2"/>
                  <circle id="Ellipse_57" data-name="Ellipse 57" cx="3.182" cy="3.182" r="3.182" transform="translate(62.284 78.39) rotate(-76.718)" fill="#f2f2f2"/>
                </g>
              </g>
            </g>
            <circle id="Ellipse_58" data-name="Ellipse 58" cx="2.902" cy="2.902" r="2.902" transform="translate(62.994 72.935)" fill="#f2f2f2"/>
            <path id="Path_507" data-name="Path 507" d="M2552.041,1271.713l61.846-36.693-.055-.043-62.938,36.337Z" transform="translate(-2550.893 -1159.183)" fill="#f2f2f2"/>
            <rect id="Rectangle_203" data-name="Rectangle 203" width="12.398" height="0.815" transform="translate(59.928 200.622)" fill="#f2f2f2"/>
            <path id="Path_508" data-name="Path 508" d="M2840.353,906.195l.851,72.415.065-.027V905.4Z" transform="translate(-2773.785 -905.398)" fill="#f2f2f2"/>
            <path id="Path_509" data-name="Path 509" d="M2908.913,1280.233l-62.7-35.214-.009.07,62.938,36.337Z" transform="translate(-2778.291 -1166.915)" fill="#f2f2f2"/>
          </g>
          <g id="Group_16074" data-name="Group 16074" transform="translate(35.915)">
            <path id="Path_510" data-name="Path 510" d="M3132.273,1777.915h-41.191a5.385,5.385,0,0,1,5.385-5.385h30.421a5.385,5.385,0,0,1,5.385,5.385Z" transform="translate(-3002.768 -1450.035)" fill="#ececec"/>
            <path id="Path_511" data-name="Path 511" d="M3155.187,1100.235h-21.676l7.045-200.783,4.734,3.147Z" transform="translate(-3035.44 -777.74)" fill="#ececec"/>
            <g id="Group_16073" data-name="Group 16073" transform="translate(0 0)">
              <path id="Path_512" data-name="Path 512" d="M3118.947,1777.915h-41.191a5.385,5.385,0,0,1,5.385-5.385h30.421a5.385,5.385,0,0,1,5.385,5.385Z" transform="translate(-2992.507 -1450.035)" fill="#f2f2f2"/>
              <g id="Group_16072" data-name="Group 16072">
                <g id="Group_16071" data-name="Group 16071">
                  <path id="Path_513" data-name="Path 513" d="M3167.312,894.421l103.646,59.84-1.262-6.567a3.04,3.04,0,0,0-1.125-1.83l-69-53.41a3.039,3.039,0,0,0-2.731-.509l-15.234,4.552a3.039,3.039,0,0,1-2.39-.28l-9.708-5.6Z" transform="translate(-3061.468 -770.933)" fill="#f2f2f2"/>
                  <path id="Path_514" data-name="Path 514" d="M2810.708,890.613l-103.646,59.84,6.317,2.19a3.046,3.046,0,0,0,2.15-.059l82.2-33.64,4.339-18.263,10.843-6.26Z" transform="translate(-2707.063 -770.933)" fill="#f2f2f2"/>
                  <path id="Path_515" data-name="Path 515" d="M3117.053,489.883V370.2L3112,374.578a3.047,3.047,0,0,0-1.025,1.893l-11.754,86.452a3.046,3.046,0,0,0,.927,2.625L3111.7,476.46a3.047,3.047,0,0,1,.955,2.215v11.207Z" transform="translate(-3009.013 -370.203)" fill="#f2f2f2"/>
                  <path id="Path_516" data-name="Path 516" d="M3143.953,1100.235h-19.894l7.045-200.783h5.8Z" transform="translate(-3028.162 -777.74)" fill="#f2f2f2"/>
                  <circle id="Ellipse_59" data-name="Ellipse 59" cx="5.095" cy="5.095" r="5.095" transform="translate(99.188 124.47) rotate(-67.5)" fill="#ececec"/>
                </g>
              </g>
            </g>
            <circle id="Ellipse_60" data-name="Ellipse 60" cx="4.646" cy="4.646" r="4.646" transform="translate(99.427 123.927) rotate(-67.5)" fill="#f2f2f2"/>
            <path id="Path_517" data-name="Path 517" d="M2708.9,956.662l99.014-58.744-.089-.069-100.763,58.175Z" transform="translate(-2707.063 -776.506)" fill="#ececec"/>
            <rect id="Rectangle_204" data-name="Rectangle 204" width="19.848" height="1.305" transform="translate(95.943 321.191)" fill="#ececec"/>
            <path id="Path_518" data-name="Path 518" d="M3170.481,371.478l1.362,115.935.1-.043V370.2Z" transform="translate(-3063.908 -370.203)" fill="#ececec"/>
            <path id="Path_519" data-name="Path 519" d="M3280.243,970.3l-100.38-56.377-.015.111,100.763,58.175Z" transform="translate(-3071.12 -788.885)" fill="#ececec"/>
          </g>
        </g>
        <g id="Group_16078" data-name="Group 16078" transform="translate(73.31 86.601)">
          <g id="Group_16076" data-name="Group 16076" transform="translate(0 54.406)">
            <rect id="Rectangle_205" data-name="Rectangle 205" width="48.228" height="103.735" rx="24.114" fill="#f2f2f2"/>
            <path id="Path_520" data-name="Path 520" d="M1832.547,1247.952h-2.631v-162.5a1.316,1.316,0,0,1,1.315-1.316h0a1.315,1.315,0,0,1,1.315,1.316Z" transform="translate(-1807.118 -1046.884)" fill="#e4e4e4"/>
            <path id="Path_521" data-name="Path 521" d="M1808.642,1141l-7.315-12.671a1.316,1.316,0,0,0-2.279,1.316l7.315,12.671Z" transform="translate(-1783.213 -1080.406)" fill="#e4e4e4"/>
            <path id="Path_522" data-name="Path 522" d="M1832.195,1202.493l7.315-12.671a1.316,1.316,0,1,0-2.279-1.316l-7.315,12.671Z" transform="translate(-1807.118 -1126.745)" fill="#e4e4e4"/>
          </g>
          <g id="Group_16077" data-name="Group 16077" transform="translate(55.071)">
            <rect id="Rectangle_206" data-name="Rectangle 206" width="61.242" height="131.729" rx="30.621" fill="#f2f2f2"/>
            <path id="Path_523" data-name="Path 523" d="M2099.478,1099.3h-3.341V892.945a1.67,1.67,0,0,1,1.671-1.671h0a1.671,1.671,0,0,1,1.67,1.671Z" transform="translate(-2067.186 -843.968)" fill="#e4e4e4"/>
            <path id="Path_524" data-name="Path 524" d="M2069.122,963.481l-9.29-16.09a1.671,1.671,0,1,0-2.894,1.671l9.29,16.09Z" transform="translate(-2036.83 -886.536)" fill="#e4e4e4"/>
            <path id="Path_525" data-name="Path 525" d="M2099.03,1041.57l9.29-16.09a1.67,1.67,0,1,0-2.893-1.67l-9.29,16.09Z" transform="translate(-2067.186 -945.381)" fill="#e4e4e4"/>
          </g>
        </g>
        <g id="Group_16086" data-name="Group 16086" transform="translate(83.58 296.58)">
          <g id="Group_16081" data-name="Group 16081">
            <g id="Group_16079" data-name="Group 16079" transform="translate(0 20.778)">
              <path id="Path_526" data-name="Path 526" d="M1804.154,1704.586c1.405-1.321,2.048-2.828,1.494-3.89-.686-1.314-2.981-1.515-5.431-.59q.188-.479.347-.987c1.306-4.169.56-8.114-1.665-8.81-2.169-.679-4.943,1.978-6.291,5.974-1.116-4.579-3.983-7.807-6.441-7.229-2.314.544-3.448,4.27-2.7,8.54-3.39-1.5-6.661-1.378-7.7.427-1.079,1.869.6,4.9,3.8,7.115-1.518.509-2.562,1.439-2.7,2.606-.176,1.433,1.054,2.847,3,3.72a1.387,1.387,0,0,0-.073.829c.2.864,1.3,1.4,2.731,1.454v0h18.318v-.016a.8.8,0,0,0,.705-.434.637.637,0,0,0-.059-.521,2.087,2.087,0,0,0,1.9-1.1,1.764,1.764,0,0,0-.335-1.61c2.473-.165,4.374-1.249,4.434-2.644C1807.54,1706.2,1806.154,1705.093,1804.154,1704.586Z" transform="translate(-1775.434 -1688.988)" fill="#e4e4e4"/>
            </g>
            <g id="Group_16080" data-name="Group 16080" transform="translate(13.981)">
              <path id="Path_527" data-name="Path 527" d="M1889.044,1627.325c2.584-2.429,3.766-5.2,2.747-7.153-1.261-2.417-5.482-2.786-9.987-1.085q.346-.88.639-1.814c2.4-7.667,1.03-14.922-3.063-16.2-3.989-1.249-9.091,3.638-11.57,10.987-2.053-8.421-7.325-14.357-11.844-13.293-4.255,1-6.341,7.853-4.972,15.706-6.235-2.753-12.25-2.534-14.167.786-1.984,3.437,1.107,9.017,7,13.083-2.792.936-4.711,2.646-4.974,4.794-.322,2.636,1.938,5.236,5.523,6.841a2.551,2.551,0,0,0-.135,1.524c.374,1.59,2.388,2.571,5.022,2.674v.009h33.688v-.029a1.481,1.481,0,0,0,1.3-.8,1.173,1.173,0,0,0-.109-.958c1.751-.17,3.068-.862,3.5-2.018a3.246,3.246,0,0,0-.615-2.961c4.548-.3,8.043-2.3,8.154-4.862C1895.271,1630.3,1892.723,1628.259,1889.044,1627.325Z" transform="translate(-1836.227 -1598.639)" fill="#f2f2f2"/>
            </g>
          </g>
          <g id="Group_16082" data-name="Group 16082" transform="translate(287.808 4.878)">
            <path id="Path_528" data-name="Path 528" d="M3032.39,1645.394c-2.3-2.163-3.353-4.631-2.446-6.37,1.123-2.152,4.881-2.481,8.893-.966q-.308-.784-.569-1.615c-2.138-6.827-.917-13.287,2.727-14.428,3.552-1.112,8.1,3.24,10.3,9.783,1.828-7.5,6.522-12.784,10.547-11.837,3.789.891,5.646,6.993,4.427,13.985,5.552-2.451,10.908-2.256,12.615.7,1.767,3.06-.986,8.029-6.229,11.65,2.486.833,4.2,2.356,4.429,4.268.287,2.347-1.726,4.662-4.918,6.092a2.273,2.273,0,0,1,.12,1.357c-.333,1.416-2.126,2.29-4.471,2.382v.008h-30v-.026a1.319,1.319,0,0,1-1.155-.711,1.045,1.045,0,0,1,.1-.853c-1.559-.151-2.732-.768-3.117-1.8a2.891,2.891,0,0,1,.548-2.637c-4.05-.271-7.162-2.046-7.261-4.329C3026.845,1648.042,3029.113,1646.225,3032.39,1645.394Z" transform="translate(-3026.929 -1619.85)" fill="#eaeaea"/>
          </g>
          <g id="Group_16083" data-name="Group 16083" transform="translate(325.296 29.066)">
            <path id="Path_529" data-name="Path 529" d="M3192.145,1735.351c-.93-.874-1.355-1.871-.988-2.574.454-.87,1.972-1,3.593-.39q-.125-.317-.23-.653c-.864-2.759-.37-5.369,1.1-5.83,1.435-.449,3.271,1.309,4.162,3.953.739-3.03,2.635-5.165,4.262-4.783,1.531.36,2.281,2.825,1.789,5.651,2.243-.99,4.407-.912,5.1.283.714,1.236-.4,3.244-2.517,4.707a2.334,2.334,0,0,1,1.79,1.724c.116.949-.7,1.884-1.987,2.461a.917.917,0,0,1,.049.548c-.135.572-.859.925-1.807.962v0h-12.12v-.011a.532.532,0,0,1-.467-.287.422.422,0,0,1,.039-.344,1.38,1.38,0,0,1-1.259-.726,1.167,1.167,0,0,1,.221-1.065c-1.636-.109-2.894-.827-2.934-1.749C3189.9,1736.421,3190.821,1735.687,3192.145,1735.351Z" transform="translate(-3189.939 -1725.03)" fill="#e4e4e4"/>
          </g>
          <g id="Group_16084" data-name="Group 16084" transform="translate(176.501 7.212)">
            <path id="Path_530" data-name="Path 530" d="M2548.07,1654.078c-2.169-2.039-3.161-4.366-2.305-6,1.059-2.029,4.6-2.339,8.382-.911q-.29-.739-.536-1.523c-2.015-6.436-.864-12.524,2.571-13.6,3.348-1.048,7.63,3.054,9.711,9.222,1.724-7.068,6.148-12.05,9.941-11.158,3.572.84,5.322,6.591,4.173,13.182,5.233-2.31,10.282-2.126,11.891.66,1.665,2.885-.929,7.568-5.872,10.981,2.343.786,3.955,2.221,4.175,4.023.271,2.213-1.627,4.395-4.636,5.742a2.139,2.139,0,0,1,.113,1.279c-.314,1.334-2,2.158-4.215,2.245v.008h-28.275v-.024a1.243,1.243,0,0,1-1.089-.67.984.984,0,0,1,.091-.8c-1.47-.142-2.575-.724-2.938-1.694a2.725,2.725,0,0,1,.517-2.485c-3.817-.255-6.751-1.928-6.844-4.081C2542.844,1656.574,2544.982,1654.861,2548.07,1654.078Z" transform="translate(-2542.923 -1630)" fill="#f2f2f2"/>
          </g>
          <g id="Group_16085" data-name="Group 16085" transform="translate(210.124 23.785)">
            <path id="Path_531" data-name="Path 531" d="M2692.045,1715.7c-1.229-1.155-1.79-2.473-1.306-3.4.6-1.149,2.606-1.325,4.748-.516q-.164-.419-.3-.863c-1.141-3.645-.489-7.094,1.456-7.7,1.9-.594,4.322,1.73,5.5,5.223.976-4,3.482-6.826,5.631-6.32,2.023.476,3.014,3.733,2.364,7.467,2.964-1.309,5.824-1.2,6.735.374.943,1.634-.526,4.287-3.326,6.22a3.085,3.085,0,0,1,2.365,2.279c.153,1.253-.921,2.489-2.625,3.252a1.214,1.214,0,0,1,.064.725c-.178.756-1.135,1.222-2.387,1.272v0h-16.015v-.014a.7.7,0,0,1-.617-.379.558.558,0,0,1,.052-.455,1.825,1.825,0,0,1-1.664-.959,1.543,1.543,0,0,1,.293-1.408c-2.162-.145-3.824-1.092-3.877-2.311C2689.084,1717.118,2690.3,1716.148,2692.045,1715.7Z" transform="translate(-2689.129 -1702.066)" fill="#e4e4e4"/>
          </g>
        </g>
        <g id="Group_16087" data-name="Group 16087" transform="translate(179.973 86.676)">
          <path id="Path_532" data-name="Path 532" d="M2731.848,918.485a1.9,1.9,0,0,0-.567.086q.01-.141.01-.285a3.991,3.991,0,0,0-7.832-1.084,2.586,2.586,0,1,0-.7,5.074c.045,0,.09,0,.135,0v0h8.957a1.9,1.9,0,0,0,0-3.791Z" transform="translate(-2599.301 -861.77)" fill="#f2f2f2"/>
          <path id="Path_533" data-name="Path 533" d="M2316.9,699.034a5.719,5.719,0,0,0-2.951.815,8.711,8.711,0,0,0-8.483-6.74,8.8,8.8,0,0,0-1.073.068,12.317,12.317,0,0,0-23.557,5.036c0,.073,0,.145,0,.217a6.353,6.353,0,1,0-2.714,12.1H2316.9a5.747,5.747,0,1,0,0-11.494Z" transform="translate(-2254.022 -685.898)" fill="#f2f2f2"/>
          <path id="Path_534" data-name="Path 534" d="M2198.366,1309.188a3.761,3.761,0,0,1,1.941.536,5.73,5.73,0,0,1,5.58-4.434,5.811,5.811,0,0,1,.706.045,8.1,8.1,0,0,1,15.5,3.313c0,.048,0,.1,0,.143a4.179,4.179,0,1,1,1.785,7.958h-25.507a3.78,3.78,0,1,1,0-7.561Z" transform="translate(-2194.586 -1159.195)" fill="#f2f2f2"/>
        </g>
        <g id="Group_16128" data-name="Group 16128" transform="translate(79.434 285.371)">
          <g id="Group_16095" data-name="Group 16095" transform="translate(350.115 33.782)">
            <g id="Group_16092" data-name="Group 16092" transform="translate(0.763)">
              <g id="Group_16091" data-name="Group 16091">
                <g id="Group_16090" data-name="Group 16090">
                  <g id="Group_16089" data-name="Group 16089">
                    <g id="Group_16088" data-name="Group 16088">
                      <path id="Path_535" data-name="Path 535" d="M3290.3,1697.021l-.06.229a6.948,6.948,0,0,1-.551,1.349,4.949,4.949,0,0,1-4.859,2.867,6.9,6.9,0,0,1-1.447-.17l-.229-.058.06-.229a6.959,6.959,0,0,1,.551-1.349,4.949,4.949,0,0,1,4.859-2.867,6.905,6.905,0,0,1,1.447.17Zm-6.558,3.87a4.839,4.839,0,1,0,2.242-3.019A5.781,5.781,0,0,0,3283.744,1700.891Z" transform="translate(-3283.155 -1696.792)" fill="#e4e4e4"/>
                    </g>
                  </g>
                </g>
              </g>
            </g>
            <g id="Group_16094" data-name="Group 16094" transform="translate(0 1.901)">
              <g id="Group_16093" data-name="Group 16093">
                <path id="Path_536" data-name="Path 536" d="M3284.462,1708.887a2.536,2.536,0,1,1,3.3-3.255A6.857,6.857,0,0,1,3284.462,1708.887Z" transform="translate(-3279.836 -1705.057)" fill="#f2f2f2"/>
              </g>
            </g>
          </g>
          <g id="Group_16103" data-name="Group 16103" transform="translate(342.1 7.717)">
            <g id="Group_16100" data-name="Group 16100" transform="translate(0.613)">
              <g id="Group_16099" data-name="Group 16099">
                <g id="Group_16098" data-name="Group 16098">
                  <g id="Group_16097" data-name="Group 16097">
                    <g id="Group_16096" data-name="Group 16096">
                      <path id="Path_537" data-name="Path 537" d="M3255,1583.455l0,.295a8.6,8.6,0,0,1-.257,1.794,6.155,6.155,0,0,1-4.995,4.931,8.607,8.607,0,0,1-1.8.234h-.294l0-.295a8.65,8.65,0,0,1,.257-1.794,6.157,6.157,0,0,1,5-4.931,8.614,8.614,0,0,1,1.8-.233Zm-6.741,6.655a6.019,6.019,0,1,0,1.791-4.322A7.189,7.189,0,0,0,3248.255,1590.109Z" transform="translate(-3247.649 -1583.454)" fill="#e4e4e4"/>
                    </g>
                  </g>
                </g>
              </g>
            </g>
            <g id="Group_16102" data-name="Group 16102" transform="translate(0 2.61)">
              <g id="Group_16101" data-name="Group 16101">
                <path id="Path_538" data-name="Path 538" d="M3250.647,1599.827a3.154,3.154,0,1,1,2.994-4.926A8.532,8.532,0,0,1,3250.647,1599.827Z" transform="translate(-3244.984 -1594.803)" fill="#f2f2f2"/>
              </g>
            </g>
          </g>
          <g id="Group_16111" data-name="Group 16111" transform="translate(44.874 0)">
            <g id="Group_16108" data-name="Group 16108">
              <g id="Group_16107" data-name="Group 16107">
                <g id="Group_16106" data-name="Group 16106">
                  <g id="Group_16105" data-name="Group 16105">
                    <g id="Group_16104" data-name="Group 16104">
                      <path id="Path_539" data-name="Path 539" d="M1954.194,1549.9l.187.16a7.165,7.165,0,0,1,1.009,1.124,5.13,5.13,0,0,1,.476,5.829,7.179,7.179,0,0,1-.813,1.273l-.158.188-.187-.16a7.165,7.165,0,0,1-1.009-1.124,5.129,5.129,0,0,1-.476-5.829,7.176,7.176,0,0,1,.813-1.273Zm.642,7.866a5.015,5.015,0,1,0-1.8-3.456A5.988,5.988,0,0,0,1954.836,1557.764Z" transform="translate(-1952.534 -1549.898)" fill="#e4e4e4"/>
                    </g>
                  </g>
                </g>
              </g>
            </g>
            <g id="Group_16110" data-name="Group 16110" transform="translate(1.401 1.004)">
              <g id="Group_16109" data-name="Group 16109">
                <path id="Path_540" data-name="Path 540" d="M1962.53,1558.81a2.628,2.628,0,1,1-1.544-4.548A7.11,7.11,0,0,1,1962.53,1558.81Z" transform="translate(-1958.624 -1554.262)" fill="#f2f2f2"/>
              </g>
            </g>
          </g>
          <g id="Group_16119" data-name="Group 16119" transform="translate(0 27.259)">
            <g id="Group_16116" data-name="Group 16116" transform="translate(0 0.612)">
              <g id="Group_16115" data-name="Group 16115">
                <g id="Group_16114" data-name="Group 16114">
                  <g id="Group_16113" data-name="Group 16113">
                    <g id="Group_16112" data-name="Group 16112">
                      <path id="Path_541" data-name="Path 541" d="M1757.407,1671.106l.206-.014a6.056,6.056,0,0,1,1.267.084,4.312,4.312,0,0,1,3.709,3.228,6.026,6.026,0,0,1,.258,1.243l.015.206-.206.014a6.039,6.039,0,0,1-1.267-.084,4.312,4.312,0,0,1-3.709-3.228,6.018,6.018,0,0,1-.258-1.243Zm5.005,4.356a4.217,4.217,0,1,0-3.113-1.022A5.034,5.034,0,0,0,1762.412,1675.462Z" transform="translate(-1757.407 -1671.087)" fill="#e4e4e4"/>
                    </g>
                  </g>
                </g>
              </g>
            </g>
            <g id="Group_16118" data-name="Group 16118" transform="translate(1.838)">
              <g id="Group_16117" data-name="Group 16117">
                <path id="Path_542" data-name="Path 542" d="M1769.014,1670.258a2.21,2.21,0,1,1-3.6-1.83A5.979,5.979,0,0,1,1769.014,1670.258Z" transform="translate(-1765.398 -1668.428)" fill="#f2f2f2"/>
              </g>
            </g>
          </g>
          <g id="Group_16127" data-name="Group 16127" transform="translate(288.353 20.988)">
            <g id="Group_16124" data-name="Group 16124" transform="translate(0 0.616)">
              <g id="Group_16123" data-name="Group 16123">
                <g id="Group_16122" data-name="Group 16122">
                  <g id="Group_16121" data-name="Group 16121">
                    <g id="Group_16120" data-name="Group 16120">
                      <path id="Path_543" data-name="Path 543" d="M3011.271,1643.847l.231-.006a6.789,6.789,0,0,1,1.417.152,4.838,4.838,0,0,1,4.011,3.788,6.763,6.763,0,0,1,.233,1.406l.007.231-.231.006a6.751,6.751,0,0,1-1.417-.152,4.839,4.839,0,0,1-4.011-3.788,6.78,6.78,0,0,1-.233-1.406Zm5.413,5.112a4.731,4.731,0,1,0-3.444-1.288A5.65,5.65,0,0,0,3016.684,1648.959Z" transform="translate(-3011.271 -1643.84)" fill="#e4e4e4"/>
                    </g>
                  </g>
                </g>
              </g>
            </g>
            <g id="Group_16126" data-name="Group 16126" transform="translate(2.063)">
              <g id="Group_16125" data-name="Group 16125">
                <path id="Path_544" data-name="Path 544" d="M3024.239,1643.378a2.479,2.479,0,1,1-3.952-2.216A6.707,6.707,0,0,1,3024.239,1643.378Z" transform="translate(-3020.242 -1641.162)" fill="#f2f2f2"/>
              </g>
            </g>
          </g>
        </g>
      </g>
      <g id="Group_16132" data-name="Group 16132" transform="translate(71.886 164.2)">
        <g id="Group_16130" data-name="Group 16130" transform="translate(102.988)">
          <path id="Path_545" data-name="Path 545" d="M2374.458,1186.652H2267.54l1.945-7.043,3.8-13.753,2.3-8.327,3.392-12.277,6.539-23.667,3.392-12.277L2312.751,1023h16.5l8.739,31.631,15.105,54.677,3.392,12.277,6.539,23.667,3.392,12.277,6.1,22.079Z" transform="translate(-2245.663 -1023)" fill="#4656a1"/>
          <path id="Path_546" data-name="Path 546" d="M2374.459,1292.565H2267.54l1.945-7.043,3.8-13.753c74.506-4.4,64.7-111.224,64.7-111.224l34.528,124.977Z" transform="translate(-2245.664 -1128.914)" fill="#38488c"/>
          <rect id="Rectangle_207" data-name="Rectangle 207" width="150.671" height="14.326" transform="translate(0 163.652)" fill="#38488c"/>
          <path id="Path_547" data-name="Path 547" d="M2374.458,1711.033H2267.54l1.945-7.043h103.029Z" transform="translate(-2245.663 -1547.382)" fill="#232851"/>
          <path id="Path_548" data-name="Path 548" d="M2465.015,1451.686s-2.24,47.253-56.53,58.062l72.56-.039Z" transform="translate(-2354.195 -1353.1)" fill="#2b3872"/>
          <path id="Path_549" data-name="Path 549" d="M2416.672,1410.578H2345.7l3.392-12.277h64.184Z" transform="translate(-2305.852 -1311.993)" fill="#fff"/>
          <path id="Path_550" data-name="Path 550" d="M2393.351,1566.873h-90.829l3.392-12.277h84.045Z" transform="translate(-2272.601 -1432.344)" fill="#fff"/>
          <path id="Path_551" data-name="Path 551" d="M2361.484,1734.616s-19.972,15.078-93.944,14.325h128.795v-14.326Z" transform="translate(-2245.664 -1570.964)" fill="#2b3872"/>
        </g>
        <g id="Group_16131" data-name="Group 16131" transform="translate(0 177.791)">
          <rect id="Rectangle_208" data-name="Rectangle 208" width="201.889" height="4.913" rx="2.457" transform="translate(76.328)" fill="#242850"/>
          <rect id="Rectangle_209" data-name="Rectangle 209" width="36.752" height="4.913" rx="2.457" transform="translate(48.155)" fill="#242850"/>
          <rect id="Rectangle_210" data-name="Rectangle 210" width="38.367" height="4.913" rx="2.457" fill="#242850"/>
          <rect id="Rectangle_211" data-name="Rectangle 211" width="32.363" height="4.913" rx="2.457" transform="translate(288.396)" fill="#242850"/>
          <rect id="Rectangle_212" data-name="Rectangle 212" width="25.774" height="4.913" rx="2.457" transform="translate(330.957)" fill="#242850"/>
        </g>
      </g>
    </g>
  </g>
</svg>
