<svg xmlns="http://www.w3.org/2000/svg" width="22" height="18.321" viewBox="0 0 22 18.321"><g transform="translate(0 -42.814)"><g transform="translate(0 42.814)"><path d="M21.987,53.742v0l-.008-.107a6.991,6.991,0,0,0-2.974-5.195l.007-.008-.324-.2h0l-.23-.142,0,0a6.974,6.974,0,0,0-4.946-.731,6.971,6.971,0,1,0-5.015,9.227,6.977,6.977,0,0,0,1.984,2.854l.091.079h0A6.971,6.971,0,0,0,22,54.164C22,54.024,22,53.882,21.987,53.742Zm-8.8-5.634c.064-.019.127-.038.192-.055a6.343,6.343,0,0,1,4.63.531l-.007.007-.02.021h0a14.666,14.666,0,0,1-9.162,4.3,6.3,6.3,0,0,1,4.323-4.793ZM8.079,53.636c-.013.176-.021.352-.021.528a6.976,6.976,0,0,0,.233,1.789l0,.019a6.327,6.327,0,1,1,4.588-8.442l-.066.022h0a6.976,6.976,0,0,0-4.66,5.429h0l-.034.255-.053.4Zm.928,2.471c-.021-.064-.039-.128-.058-.193-.008-.028-.016-.057-.024-.085s-.012-.048-.019-.072c-.02-.077-.039-.155-.056-.232A6.343,6.343,0,0,1,8.7,54.164c0-.2.009-.393.027-.589a15.312,15.312,0,0,0,9.847-4.649,6.347,6.347,0,0,1,2.752,4.651c-2.778,4.3-7.224,5.262-10.521,5.3A6.328,6.328,0,0,1,9.007,56.107Zm6.022,4.383a6.336,6.336,0,0,1-3.407-1l-.007,0a14.841,14.841,0,0,0,4.766-1.028,11.587,11.587,0,0,0,4.928-3.743h0l.024-.031A6.335,6.335,0,0,1,15.029,60.49Z" transform="translate(0 -42.814)"/></g><g transform="translate(12.637 52.034)"><path d="M296.929,257.391a2.821,2.821,0,1,0,2.821,2.821A2.824,2.824,0,0,0,296.929,257.391Zm-.053,2.406a.671.671,0,0,0,.151-.106,1.262,1.262,0,0,0,.146-.155,1.644,1.644,0,0,0,.117-.167.456.456,0,0,0,.063-.145l.557,1.144-.536.261.223.457,1.5-.732a2.168,2.168,0,1,1,.005-.141c0,.024,0,.048,0,.072l-.2-.4-.479.234-.828-1.7-.517.252a.444.444,0,0,1-.044.136,1.772,1.772,0,0,1-.106.2,1.585,1.585,0,0,1-.142.2.475.475,0,0,1-.145.124Z" transform="translate(-294.108 -257.391)"/></g><g transform="translate(1.141 46.185)"><path d="M29.845,121.259a3.28,3.28,0,1,0,3.28,3.28A3.284,3.284,0,0,0,29.845,121.259Zm0,5.916a2.636,2.636,0,1,1,2.636-2.636A2.639,2.639,0,0,1,29.845,127.175Z" transform="translate(-26.565 -121.259)"/></g><g transform="translate(2.852 47.749)"><path d="M69.1,158.549a.984.984,0,0,0-.154-.357,1.143,1.143,0,0,0-.281-.282,1.362,1.362,0,0,0-.345-.181,1.283,1.283,0,0,0-.384-.068,1.226,1.226,0,0,0-.393.052.942.942,0,0,0-.341.186.762.762,0,0,0-.223.34.616.616,0,0,0-.005.388.784.784,0,0,0,.2.334,1,1,0,0,0-.214.055,1.028,1.028,0,0,0-.213.109.893.893,0,0,0-.186.166.7.7,0,0,0-.129.23.945.945,0,0,0-.049.428,1.02,1.02,0,0,0,.135.4,1.183,1.183,0,0,0,.291.33,1.4,1.4,0,0,0,.416.225,1.481,1.481,0,0,0,.465.084,1.192,1.192,0,0,0,.432-.071,1,1,0,0,0,.352-.219.908.908,0,0,0,.227-.366.772.772,0,0,0,.045-.266.875.875,0,0,0-.04-.249,1.014,1.014,0,0,0-.1-.223,1.042,1.042,0,0,0-.144-.185.811.811,0,0,0,.194-.047.773.773,0,0,0,.178-.094.686.686,0,0,0,.144-.138.6.6,0,0,0,.094-.173A.749.749,0,0,0,69.1,158.549Zm-.99,1.538a.429.429,0,0,1-.109.172.49.49,0,0,1-.17.107.611.611,0,0,1-.206.038.622.622,0,0,1-.215-.035.647.647,0,0,1-.187-.1.575.575,0,0,1-.139-.154.519.519,0,0,1-.07-.19.422.422,0,0,1,.02-.208.438.438,0,0,1,.11-.177.5.5,0,0,1,.168-.108.548.548,0,0,1,.2-.036.662.662,0,0,1,.214.037.691.691,0,0,1,.188.1.6.6,0,0,1,.143.151.472.472,0,0,1,.073.19A.446.446,0,0,1,68.112,160.087Zm.347-1.323a.334.334,0,0,1-.1.147.416.416,0,0,1-.144.081.479.479,0,0,1-.169.023.557.557,0,0,1-.163-.029.548.548,0,0,1-.148-.078.516.516,0,0,1-.117-.119.391.391,0,0,1-.064-.151.358.358,0,0,1,.234-.393.517.517,0,0,1,.343.007.543.543,0,0,1,.282.206A.326.326,0,0,1,68.46,158.765Z" transform="translate(-66.375 -157.661)"/></g><g transform="translate(13.405 53.922)"><path d="M314.222,302.8l-.479.234-.828-1.7-.517.252a.445.445,0,0,1-.044.136,1.76,1.76,0,0,1-.106.2,1.578,1.578,0,0,1-.142.2.474.474,0,0,1-.145.124l.23.472a.671.671,0,0,0,.151-.107,1.263,1.263,0,0,0,.146-.155,1.632,1.632,0,0,0,.117-.167.456.456,0,0,0,.063-.145l.557,1.144-.536.261.223.457,1.533-.747Z" transform="translate(-311.961 -301.334)"/></g><g transform="translate(17.758 43.761)"><rect width="2.142" height="0.645" transform="translate(0 2.019) rotate(-70.489)"/></g><g transform="translate(19.89 45.466)"><rect width="2.142" height="0.645" transform="matrix(0.699, -0.715, 0.715, 0.699, 0, 1.532)"/></g><g transform="translate(15.104 43.467)"><g transform="translate(0 0)"><rect width="0.645" height="2.142" transform="matrix(0.996, -0.093, 0.093, 0.996, 0, 0.06)"/></g></g><g transform="translate(7.659 43.837)"><path d="M178.329,66.625l-.085.639a5.35,5.35,0,0,1,.8.17l.182-.618A6,6,0,0,0,178.329,66.625Z" transform="translate(-178.244 -66.625)"/></g><g transform="translate(8.999 44.241)"><path d="M209.684,76.026l-.247.6a5.376,5.376,0,0,1,2.18,1.666l.509-.4A6.023,6.023,0,0,0,209.684,76.026Z" transform="translate(-209.437 -76.026)"/></g></g></svg>