<svg xmlns="http://www.w3.org/2000/svg" width="15.599" height="16.198" viewBox="0 0 15.599 16.198"><path d="M8.136,16.2h11.3a2.149,2.149,0,0,0,2.148-2.148V3.348A2.149,2.149,0,0,0,19.439,1.2h-.852V.6a.6.6,0,0,0-1.2,0v.6h-7.2V.6a.6.6,0,0,0-1.2,0v.6H8.136A2.149,2.149,0,0,0,5.988,3.348v10.7A2.149,2.149,0,0,0,8.136,16.2ZM7.188,3.348A.95.95,0,0,1,8.136,2.4h.852V3a.6.6,0,1,0,1.2,0V2.4h7.2V3a.6.6,0,1,0,1.2,0V2.4h.852a.95.95,0,0,1,.948.948v10.7a.95.95,0,0,1-.948.948H8.136a.95.95,0,0,1-.948-.948Z" transform="translate(-5.988 0)"/><circle cx="0.75" cy="0.75" r="0.75" transform="translate(3.6 5.4)"/><circle cx="0.75" cy="0.75" r="0.75" transform="translate(6.899 5.4)"/><circle cx="0.75" cy="0.75" r="0.75" transform="translate(10.199 5.4)"/><circle cx="0.75" cy="0.75" r="0.75" transform="translate(3.6 8.399)"/><circle cx="0.75" cy="0.75" r="0.75" transform="translate(6.899 8.399)"/><circle cx="0.75" cy="0.75" r="0.75" transform="translate(10.199 8.399)"/><circle cx="0.75" cy="0.75" r="0.75" transform="translate(3.6 11.399)"/><circle cx="0.75" cy="0.75" r="0.75" transform="translate(6.899 11.399)"/><circle cx="0.75" cy="0.75" r="0.75" transform="translate(10.199 11.399)"/></svg>