<svg xmlns="http://www.w3.org/2000/svg" width="15" height="15.833" viewBox="0 0 15 15.833"><path d="M13.9,3.615h-1.76V3.327a.505.505,0,1,0-1,0v.288H5.865V3.327a.542.542,0,0,0-.5-.577.542.542,0,0,0-.5.577v.288H3.105A2.289,2.289,0,0,0,1,6.042V16.156a2.289,2.289,0,0,0,2.105,2.427H13.9A2.289,2.289,0,0,0,16,16.156V6.042A2.289,2.289,0,0,0,13.9,3.615ZM3.105,4.768h1.76v.288a.542.542,0,0,0,.5.577.542.542,0,0,0,.5-.577V4.768h5.27v.288a.505.505,0,1,0,1,0V4.768H13.9A1.2,1.2,0,0,1,15,6.042V7.409H2V6.042A1.2,1.2,0,0,1,3.105,4.768ZM13.9,17.453H3.105a1.038,1.038,0,0,1-.789-.381A1.384,1.384,0,0,1,2,16.156V8.562H15v7.594a1.384,1.384,0,0,1-.316.916,1.038,1.038,0,0,1-.789.381Z" transform="translate(-1 -2.75)"/></svg>