<svg xmlns="http://www.w3.org/2000/svg" width="21.313" height="21.153" viewBox="0 0 21.313 21.153">
  <g id="XMLID_1_" transform="translate(0 -0.181)">
    <path id="Path_383" data-name="Path 383" d="M13.944,9.09l7.824,1.554a1.312,1.312,0,0,1,1.057,1.3V21a1.33,1.33,0,0,1-1.332,1.332H13.5a.44.44,0,0,0,.444-.444v-.444h7.548A.445.445,0,0,0,21.936,21V11.941a.446.446,0,0,0-.346-.435L13.944,10Z" transform="translate(-1.511 -0.997)"/>
    <path id="Path_384" data-name="Path 384" d="M19.22,14a.444.444,0,0,1,0,.888H17.444a.444.444,0,0,1,0-.888Z" transform="translate(-1.903 -1.547)"/>
    <path id="Path_385" data-name="Path 385" d="M19.22,17a.444.444,0,0,1,0,.888H17.444a.444.444,0,1,1,0-.888Z" transform="translate(-1.903 -1.883)"/>
    <path id="Path_386" data-name="Path 386" d="M19.22,20a.444.444,0,0,1,0,.888H17.444a.444.444,0,0,1,0-.888Z" transform="translate(-1.903 -2.219)"/>
    <path id="Path_387" data-name="Path 387" d="M13.888,21.877a.444.444,0,0,1-.888,0V9.444a.472.472,0,0,1,.16-.346.467.467,0,0,1,.373-.089l.355.071v12.8Z" transform="translate(-1.455 -0.987)"/>
    <path id="Path_388" data-name="Path 388" d="M12.608,23v.444a.44.44,0,0,0,.444.444H9.5a.44.44,0,0,0,.444-.444V23Z" transform="translate(-1.064 -2.555)"/>
    <path id="Path_389" data-name="Path 389" d="M10.22,5a.444.444,0,1,1,0,.888H8.444a.444.444,0,0,1,0-.888Z" transform="translate(-0.896 -0.54)"/>
    <path id="Path_390" data-name="Path 390" d="M10.664,8.444a.44.44,0,0,1-.444.444H8.444a.444.444,0,0,1,0-.888H10.22A.44.44,0,0,1,10.664,8.444Z" transform="translate(-0.896 -0.875)"/>
    <path id="Path_391" data-name="Path 391" d="M10.22,11a.444.444,0,1,1,0,.888H8.444a.444.444,0,1,1,0-.888Z" transform="translate(-0.896 -1.211)"/>
    <path id="Path_392" data-name="Path 392" d="M10.22,14a.444.444,0,1,1,0,.888H8.444a.444.444,0,1,1,0-.888Z" transform="translate(-0.896 -1.547)"/>
    <path id="Path_393" data-name="Path 393" d="M5.664,14.444a.44.44,0,0,1-.444.444H3.444a.444.444,0,1,1,0-.888H5.22A.44.44,0,0,1,5.664,14.444Z" transform="translate(-0.336 -1.547)"/>
    <path id="Path_394" data-name="Path 394" d="M5.22,5a.444.444,0,1,1,0,.888H3.444a.444.444,0,1,1,0-.888Z" transform="translate(-0.336 -0.54)"/>
    <path id="Path_395" data-name="Path 395" d="M5.22,8a.444.444,0,1,1,0,.888H3.444a.444.444,0,1,1,0-.888Z" transform="translate(-0.336 -0.875)"/>
    <path id="Path_396" data-name="Path 396" d="M5.22,11a.444.444,0,1,1,0,.888H3.444a.444.444,0,1,1,0-.888Z" transform="translate(-0.336 -1.211)"/>
    <path id="Path_397" data-name="Path 397" d="M8.44,18.332A.445.445,0,0,0,8,17.888H5.332a.44.44,0,0,0-.444.444v4H4v-4A1.33,1.33,0,0,1,5.332,17H8a1.33,1.33,0,0,1,1.332,1.332v4H8.44Z" transform="translate(-0.448 -1.883)"/>
    <path id="Path_398" data-name="Path 398" d="M4.888,23h4.44v.444a.44.44,0,0,1-.444.444H4.444A.44.44,0,0,1,4,23.444V23Z" transform="translate(-0.448 -2.555)"/>
    <path id="Path_399" data-name="Path 399" d="M1.554.2l9.76,1.483A1.327,1.327,0,0,1,12.433,3v5.1l-.355-.071a.467.467,0,0,0-.373.089.472.472,0,0,0-.16.346V3a.449.449,0,0,0-.373-.444L1.412,1.077a.246.246,0,0,0-.08-.009.419.419,0,0,0-.284.107.425.425,0,0,0-.16.337V20a.445.445,0,0,0,.444.444h2.22v.444A.44.44,0,0,0,4,21.333H1.332A1.33,1.33,0,0,1,0,20V1.512A1.308,1.308,0,0,1,.471.5,1.333,1.333,0,0,1,1.554.2Z" transform="translate(0 0)"/>
  </g>
</svg>
