<svg xmlns="http://www.w3.org/2000/svg" width="19.333" height="19.333" viewBox="0 0 19.333 19.333"><path d="M19.262,4.071H16.5V2.69a.69.69,0,0,0-1.381,0V4.071h-6.9V2.69a.69.69,0,0,0-1.381,0V4.071H4.071A2.071,2.071,0,0,0,2,6.143V19.262a2.071,2.071,0,0,0,2.071,2.071h15.19a2.071,2.071,0,0,0,2.071-2.071V6.143A2.071,2.071,0,0,0,19.262,4.071Zm0,15.881H4.071a.69.69,0,0,1-.69-.69V10.286H16.5a.69.69,0,0,0,0-1.381H3.381V6.143a.69.69,0,0,1,.69-.69H6.833V6.833a.69.69,0,1,0,1.381,0V5.452h6.9V6.833a.69.69,0,0,0,1.381,0V5.452h2.762a.69.69,0,0,1,.69.69V8.9H18.571a.69.69,0,0,0,0,1.381h1.381v8.976A.69.69,0,0,1,19.262,19.952Z" transform="translate(-2 -2)" fill="#fff"/></svg>