<svg xmlns="http://www.w3.org/2000/svg" width="10.932" height="18.414" viewBox="0 0 10.932 18.414"><g transform="translate(-104.017 0)"><path d="M113.223,18.413h-7.48a1.728,1.728,0,0,1-1.726-1.726V5.467a5.466,5.466,0,0,1,10.932-.041,1.726,1.726,0,1,1-3.452.041,2.014,2.014,0,0,0-2.021-2.014,2.1,2.1,0,0,0-1.6,3.355,2.292,2.292,0,0,0,1.071.845l4.53,1.742a2.315,2.315,0,0,1,1.475,2.148v5.144A1.728,1.728,0,0,1,113.223,18.413Zm-3.74-17.262a4.313,4.313,0,0,0-4.315,4.315v11.22a.576.576,0,0,0,.575.575h7.48a.576.576,0,0,0,.575-.575V11.544a1.158,1.158,0,0,0-.738-1.074l-4.53-1.742a3.451,3.451,0,0,1-2.212-3.272,3.164,3.164,0,0,1,6.329.012.575.575,0,0,0,.581.575.6.6,0,0,0,.57-.608A4.313,4.313,0,0,0,109.483,1.152Z" transform="translate(0 0)"/><path d="M173.735,353.185h-5.143a.575.575,0,0,1,0-1.151h5.143a.575.575,0,1,1,0,1.151Z" transform="translate(-61.698 -339.375)"/><path d="M173.735,417.185h-5.143a.575.575,0,1,1,0-1.151h5.143a.575.575,0,1,1,0,1.151Z" transform="translate(-61.698 -401.073)"/></g></svg>