<svg xmlns="http://www.w3.org/2000/svg" width="14.667" height="14.667" viewBox="0 0 14.667 14.667"><g transform="translate(-1 -1)"><path d="M15,16a.667.667,0,0,0-.667.667v2.667h-12V16.667a.667.667,0,1,0-1.333,0V20a.667.667,0,0,0,.667.667H15A.667.667,0,0,0,15.667,20V16.667A.667.667,0,0,0,15,16Z" transform="translate(0 -5)" fill="#1492e6"/><path d="M9.2,12.138a.667.667,0,0,0,.943,0l4-4A.667.667,0,1,0,13.2,7.2l-2.862,2.862V1.667A.667.667,0,1,0,9,1.667v8.391L6.138,7.2a.667.667,0,1,0-.943.943Z" transform="translate(-1.333)" fill="#1492e6"/></g></svg>