<svg xmlns="http://www.w3.org/2000/svg" width="23.671" height="16" viewBox="0 0 23.671 16"><g transform="translate(0 -60.6)"><g transform="translate(0 60.6)"><path d="M21.367,66.8V62.954A2.2,2.2,0,0,0,19.013,60.6H4.582a2.183,2.183,0,0,0-2.354,2.354V66.8A2.411,2.411,0,0,0,0,69.435v2.987a.908.908,0,0,0,.911.911h.3v2.354a.908.908,0,0,0,.911.911h.861a.908.908,0,0,0,.911-.911v-2.38H19.772v2.38a.908.908,0,0,0,.911.911h.861a.908.908,0,0,0,.911-.911v-2.38h.3a.908.908,0,0,0,.911-.911V69.435A2.516,2.516,0,0,0,21.367,66.8ZM3.089,62.954h.051a1.3,1.3,0,0,1,1.443-1.443h14.43a1.3,1.3,0,0,1,1.443,1.443v3.823h-.684V64.6a.908.908,0,0,0-.911-.911h-5.57a.908.908,0,0,0-.911.911v2.177H11.316V64.6a.908.908,0,0,0-.911-.911H4.835a.908.908,0,0,0-.911.911v2.177H3.089ZM18.861,64.6v2.177h-5.57V64.6Zm-8.405,0v2.177H4.886V64.6ZM2.962,75.689H2.1v-2.38h.861v2.38Zm18.532,0h-.861v-2.38h.861Zm1.19-3.266H.886V71.081h21.8Zm0-2.253H.886v-.734a1.591,1.591,0,0,1,1.747-1.747h18.3a1.581,1.581,0,0,1,1.747,1.747v.734Z" transform="translate(0 -60.6)"/></g></g></svg>