<svg xmlns="http://www.w3.org/2000/svg" width="12.21" height="12.21" viewBox="0 0 12.21 12.21">
  <g id="_38_Question" data-name="38 Question" transform="translate(-0.005 -0.003)">
    <path id="Path_415" data-name="Path 415" d="M.86,12.214a.857.857,0,0,1-.848-.968l.306-2.34a.973.973,0,0,1,.276-.56L8.662.278a.94.94,0,0,1,1.328,0l1.951,1.951a.94.94,0,0,1,0,1.328L3.873,11.624a.973.973,0,0,1-.56.276l-2.34.306a.866.866,0,0,1-.113.007Zm.631-3.079-.24,1.832,1.832-.24,7.835-7.835L9.326,1.3Z" transform="translate(0 0)" fill="#929fb4"/>
    <path id="Path_416" data-name="Path 416" d="M282.716,83.751a.6.6,0,0,1-.422-.174l-2.437-2.437a.6.6,0,0,1,.844-.843l2.436,2.436a.6.6,0,0,1-.422,1.018Z" transform="translate(-273.008 -78.209)" fill="#929fb4"/>
  </g>
</svg>
