<svg xmlns="http://www.w3.org/2000/svg" width="19.67" height="19.67" viewBox="0 0 19.67 19.67">
  <g id="Group_728" data-name="Group 728" transform="translate(-241.664 -219.167)">
    <g id="_38_Question" data-name="38 Question" transform="translate(241.659 219.163)">
      <g id="Group_727" data-name="Group 727">
        <path id="Path_415" data-name="Path 415" d="M1.383,19.674a1.381,1.381,0,0,1-1.366-1.56l.493-3.77a1.568,1.568,0,0,1,.444-.9l13-13a1.514,1.514,0,0,1,2.139,0l3.143,3.143a1.514,1.514,0,0,1,0,2.139l-13,13a1.567,1.567,0,0,1-.9.444l-3.77.493a1.4,1.4,0,0,1-.182.012ZM2.4,14.714l-.386,2.952,2.952-.386L17.586,4.658,15.02,2.093Z"/>
      </g>
      <path id="Path_416" data-name="Path 416" d="M284.569,85.968a.958.958,0,0,1-.679-.28l-3.926-3.926a.961.961,0,0,1,1.36-1.358l3.924,3.924a.96.96,0,0,1-.679,1.64Z" transform="translate(-268.933 -77.041)"/>
    </g>
  </g>
</svg>
