<svg xmlns="http://www.w3.org/2000/svg" width="18.789" height="14" viewBox="0 0 18.789 14">
  <g id="mail_2_" data-name="mail (2)" transform="translate(0 -76)">
    <g id="Group_48" data-name="Group 48" transform="translate(0 76)">
      <path id="Path_50" data-name="Path 50" d="M17.138,76H1.651A1.705,1.705,0,0,0,0,77.75v10.5A1.705,1.705,0,0,0,1.651,90H17.138a1.7,1.7,0,0,0,1.651-1.75V77.75A1.7,1.7,0,0,0,17.138,76Zm-.231,1.167-6.344,6.688a1.586,1.586,0,0,1-2.336,0L1.883,77.167ZM1.1,88.013V77.988L5.858,83Zm.782.821,4.756-5.007.81.853a2.644,2.644,0,0,0,3.891,0l.811-.854,4.756,5.007Zm15.8-.821L12.931,83l4.757-5.015Z" transform="translate(0 -76)"/>
    </g>
  </g>
</svg>
