<svg xmlns="http://www.w3.org/2000/svg" width="18.891" height="11.807" viewBox="0 0 18.891 11.807"><defs><style>.a{fill:#037bb1;}</style></defs><g transform="translate(-1149.303 -250.799)"><path class="a" d="M9.445,35.807C3.266,35.807.2,30.419.074,30.19a.59.59,0,0,1,0-.574C.2,29.387,3.266,24,9.445,24s9.244,5.387,9.371,5.617a.59.59,0,0,1,0,.574C18.689,30.419,15.625,35.807,9.445,35.807Zm-8.16-5.9c.7,1.064,3.459,4.723,8.16,4.723s7.461-3.656,8.16-4.722c-.7-1.064-3.459-4.723-8.16-4.723S1.985,28.837,1.285,29.9Zm8.16,3.543A3.542,3.542,0,1,1,12.987,29.9,3.546,3.546,0,0,1,9.445,33.445Zm0-5.9A2.361,2.361,0,1,0,11.807,29.9,2.364,2.364,0,0,0,9.445,27.542Z" transform="translate(1149.303 226.799)"/></g></svg>