<svg xmlns="http://www.w3.org/2000/svg" width="14.118" height="12" viewBox="0 0 14.118 12"><defs><style>.a{fill:#1492e6;}</style></defs><g transform="translate(-2 -6.5)"><path class="a" d="M14.666,8.147h-4.2L9.36,6.686A.471.471,0,0,0,8.986,6.5H4.045A1.061,1.061,0,0,0,2.979,7.559v.668A1.449,1.449,0,0,0,2,9.6v7.449A1.454,1.454,0,0,0,3.452,18.5H14.666a1.454,1.454,0,0,0,1.452-1.452V9.6a1.454,1.454,0,0,0-1.452-1.452ZM3.452,9.088a.471.471,0,0,0,.471-.471V7.559a.118.118,0,0,1,.118-.12H8.746L9.854,8.9a.485.485,0,0,0,.247.167.386.386,0,0,0,.127.019h4.438a.511.511,0,0,1,.511.513v.508H2.941V9.6a.511.511,0,0,1,.511-.511Zm11.214,8.471H3.452a.511.511,0,0,1-.511-.511v-6H15.176v6A.511.511,0,0,1,14.666,17.559Z" transform="translate(0 0)"/></g></svg>