<svg xmlns="http://www.w3.org/2000/svg" width="56" height="56" viewBox="0 0 56 56"><g transform="translate(-5.999 -6.036)"><g transform="translate(31.994 27.504)"><path d="M31.99,44.9a2,2,0,0,1-2-2v-15.8a2,2,0,1,1,4,0V42.9a2,2,0,0,1-2,2Z" transform="translate(-29.99 -25.109)" fill="#fcc81b"/></g><g transform="translate(31.994 20.239)"><path d="M31.99,23.11a1.994,1.994,0,0,1-1.41-3.41,2.058,2.058,0,0,1,2.82-.01,2.006,2.006,0,0,1,.59,1.42,2.015,2.015,0,0,1-2,2Z" transform="translate(-29.99 -19.136)" fill="#fcc81b"/></g><g transform="translate(5.999 6.036)"><path d="M33.922,62.036a27.764,27.764,0,0,1-7.22-.949A28.017,28.017,0,1,1,46.508,8.951,28.016,28.016,0,0,1,33.922,62.036Zm.136-51.689a23.7,23.7,0,0,0-6.235,46.576,23.5,23.5,0,0,0,6.1.8h0A23.71,23.71,0,0,0,44.582,12.807a23.629,23.629,0,0,0-10.524-2.46Z" transform="translate(-5.999 -6.036)" fill="#fcc81b"/></g></g></svg>