<svg xmlns="http://www.w3.org/2000/svg" width="24.392" height="24.392" viewBox="0 0 24.392 24.392"><path d="M20.4,23.087a3.038,3.038,0,1,1-3.085,3.037A3.062,3.062,0,0,1,20.4,23.087Zm0-1.215a4.253,4.253,0,1,0,4.319,4.252A4.286,4.286,0,0,0,20.4,21.872Zm4.453-1.022a1.215,1.215,0,1,0,1.234,1.215A1.215,1.215,0,0,0,24.848,20.85Zm-7.468-1.322h6.03a3.525,3.525,0,0,1,3.552,3.5v6.2a3.524,3.524,0,0,1-3.552,3.5h-6.03a3.524,3.524,0,0,1-3.552-3.5v-6.2a3.525,3.525,0,0,1,3.552-3.5Zm-.569-1.209a4.19,4.19,0,0,0-4.222,4.156v7.3a4.189,4.189,0,0,0,4.222,4.156h7.167A4.189,4.189,0,0,0,28.2,29.774v-7.3a4.189,4.189,0,0,0-4.222-4.156ZM20.4,13.928a12.2,12.2,0,1,1-12.2,12.2A12.2,12.2,0,0,1,20.4,13.928Z" transform="translate(-8.2 -13.928)" fill="#fff" fill-rule="evenodd"/></svg>