<svg xmlns="http://www.w3.org/2000/svg" width="18.117" height="18.057" viewBox="0 0 18.117 18.057">
  <g id="logout_3_" data-name="logout (3)" transform="translate(0 -0.85)">
    <g id="Group_604" data-name="Group 604" transform="translate(0 0.85)">
      <g id="Group_603" data-name="Group 603">
        <path id="Path_413" data-name="Path 413" d="M9.029,17.4H2.257A.753.753,0,0,1,1.5,16.65V3.107a.753.753,0,0,1,.752-.752H9.029a.752.752,0,0,0,0-1.5H2.257A2.26,2.26,0,0,0,0,3.107V16.65a2.26,2.26,0,0,0,2.257,2.257H9.029a.752.752,0,1,0,0-1.5Z" transform="translate(0 -0.85)"/>
      </g>
    </g>
    <g id="Group_606" data-name="Group 606" transform="translate(6.019 4.612)">
      <g id="Group_605" data-name="Group 605">
        <path id="Path_414" data-name="Path 414" d="M181.974,111.9l-4.574-4.514a.752.752,0,0,0-1.056,1.071l3.269,3.226h-8.76a.752.752,0,0,0,0,1.5h8.76l-3.269,3.226a.752.752,0,1,0,1.056,1.071l4.574-4.514a.752.752,0,0,0,0-1.071Z" transform="translate(-170.1 -107.165)"/>
      </g>
    </g>
  </g>
</svg>
