<svg xmlns="http://www.w3.org/2000/svg" width="22" height="22" viewBox="0 0 22 22"><g transform="translate(-438 -453)"><g transform="translate(4 235)"><circle cx="11" cy="11" r="11" transform="translate(434 218)" fill="#fff"/><g transform="translate(439.613 222.507)"><path d="M58.692,2.258a5.455,5.455,0,0,0-8.84,0,5.134,5.134,0,0,0-.626,4.831,4.111,4.111,0,0,0,.78,1.257l3.911,4.48a.473.473,0,0,0,.709,0l3.91-4.479a4.116,4.116,0,0,0,.78-1.255A5.135,5.135,0,0,0,58.692,2.258Zm-.247,4.516a3.225,3.225,0,0,1-.614.981l0,0-3.557,4.074L50.714,7.755a3.227,3.227,0,0,1-.615-.984,4.247,4.247,0,0,1,.52-4,4.51,4.51,0,0,1,7.308,0A4.248,4.248,0,0,1,58.445,6.774Z" transform="translate(-48.886)"/><g transform="translate(2.844 2.694)"><g transform="translate(0)"><path d="M158.3,106.219a2.543,2.543,0,1,0,2.543,2.543A2.546,2.546,0,0,0,158.3,106.219Zm0,4.177a1.635,1.635,0,1,1,1.635-1.635A1.636,1.636,0,0,1,158.3,110.4Z" transform="translate(-155.754 -106.219)"/></g></g></g></g></g></svg>