<svg height="742pt" viewBox="-23 -96 742.49998 742" width="742pt" xmlns="http://www.w3.org/2000/svg"><path d="m205.679688 288.46875c-7.265626.800781-12.457032 7.351562-11.574219 14.617188.800781 7.269531 7.351562 12.457031 14.613281 11.585937l11.820312-1.363281 12.054688-.796875h.246094l12.449218-1.125 12.382813-.792969 12.457031-.5625h.242188l12.617187-.796875 12.382813-.234375h.234375l12.777343-.5625 12.933594-.238281h38.734375l38.488281.800781 12.621094.554688 12.460938.800781h.316406l12.378906.558593 12.375 1.035157h.242188l12.21875.800781 24.277344 2.15625c.394531 0 .796874.078125 1.195312.078125 6.707031 0 12.457031-5.113281 13.097656-11.976563.640625-7.269531-4.707031-13.65625-11.898437-14.292968l-14.777344-1.363282c2-30.578124 1.523437-61.492187-1.671875-91.910156-1.839844-17.570312-11.023438-33.460937-25.3125-43.683594-14.21875-10.144531-32.265625-13.738281-49.519531-9.746093l-43.363281 9.902343c-.074219 0-.074219 0-.152344 0-.085938 0-.085938 0-.164063 0-4.792969 1.199219-9.660156 1.199219-14.535156 0-.082031 0-.082031 0-.160156 0s-.078125 0-.15625 0l-43.363281-9.902343c-17.410157-3.992188-35.535157-.398438-49.753907 9.746093-14.289062 10.222657-23.480469 26.113282-25.3125 43.683594-3.113281 30.339844-3.671875 61.089844-1.679687 91.589844-.078125 0-.160156 0-.242188 0zm54.632812-115.308594c7.980469-5.75 18.683594-7.75 28.585938-5.515625l43.441406 9.898438c4.390625 1.046875 8.863281 1.605469 13.335937 1.605469 4.472657 0 8.945313-.558594 13.335938-1.605469l43.441406-9.898438c9.90625-2.3125 20.203125-.234375 28.269531 5.515625 8.148438 5.824219 13.417969 14.933594 14.460938 24.992188 2.953125 28.90625 3.507812 58.136718 1.59375 87.207031l-8.464844-.722656c-.164062 0-.402344 0-.558594 0l-12.539062-.5625-12.457032-.792969c-.082031 0-.160156 0-.316406 0l-12.945312-.558594c-.078125 0-.15625 0-.316406 0l-38.730469-.796875c-.078125 0-.15625 0-.316407 0h-39.054687c-.078125 0-.15625 0-.238281 0l-13.179688.238281c-.078125 0-.15625 0-.316406 0l-12.773438.558594-12.539062.242188c-.167969 0-.398438 0-.5625 0l-12.773438.792968-12.539062.5625c-.078125 0-.160156 0-.316406 0l-11.824219.800782c-1.914063-28.910156-1.355469-58.140625 1.601563-86.890625 1.277343-10.136719 6.550781-19.246094 14.695312-25.070313zm0 0"/><path d="m346.875 132.273438c38.09375 0 69.074219-30.992188 69.074219-69.082032 0-38.09375-30.980469-69.078125-69.074219-69.078125s-69.078125 30.984375-69.078125 69.078125c0 38.089844 30.984375 69.082032 69.078125 69.082032zm0-111.804688c23.554688 0 42.722656 19.164062 42.722656 42.722656 0 23.5625-19.167968 42.726563-42.722656 42.726563-23.558594 0-42.726562-19.164063-42.726562-42.726563 0-23.558594 19.167968-42.722656 42.726562-42.722656zm0 0"/><path d="m128.703125 315.542969c38.089844 0 69.078125-30.984375 69.078125-69.078125 0-38.089844-30.988281-69.078125-69.078125-69.078125-38.09375 0-69.078125 30.988281-69.078125 69.078125 0 38.09375 30.984375 69.078125 69.078125 69.078125zm0-111.796875c23.550781 0 42.71875 19.164062 42.71875 42.71875 0 23.5625-19.167969 42.722656-42.71875 42.722656-23.5625 0-42.722656-19.160156-42.722656-42.722656 0-23.554688 19.160156-42.71875 42.722656-42.71875zm0 0"/><path d="m564.488281 315.542969c38.089844 0 69.082031-30.984375 69.082031-69.078125 0-38.089844-30.992187-69.078125-69.082031-69.078125-38.09375 0-69.078125 30.988281-69.078125 69.078125 0 38.09375 30.984375 69.078125 69.078125 69.078125zm0-111.796875c23.554688 0 42.722657 19.164062 42.722657 42.71875 0 23.5625-19.167969 42.722656-42.722657 42.722656-23.558593 0-42.722656-19.160156-42.722656-42.722656 0-23.554688 19.164063-42.71875 42.722656-42.71875zm0 0"/><path d="m691.78125 378.714844c-1.839844-17.574219-11.019531-33.460938-25.3125-43.6875-14.214844-10.144532-32.269531-13.738282-49.4375-9.738282l-43.4375 9.902344c-.082031 0-.082031 0-.160156 0s-.078125 0-.15625 0c-4.800782 1.199219-9.667969 1.199219-14.539063 0-.078125 0-.078125 0-.15625 0-.085937 0-.085937 0-.160156-.078125l-43.6875-9.902343h-.078125c-17.246094-3.921876-35.214844-.40625-49.425781 9.738281-14.300781 10.226562-23.484375 26.113281-25.320313 43.679687-3.035156 29.628906-3.59375 59.496094-1.839844 89.207032l-11.019531.476562c-.078125 0-.242187 0-.320312 0l-11.894531.800781-12.0625.558594-12.457032.238281c-.078125 0-.160156 0-.316406 0l-12.066406.5625h-12.375c-.078125 0-.15625 0-.320313 0l-12.453125.234375h-25l-24.675781-.5625-12.210937-.550781c-.089844 0-.246094 0-.328126 0l-12.371093-.242188-12.0625-.800781c-.078125 0-.160157 0-.238281 0l-11.023438-.484375c1.84375-29.785156 1.28125-59.648437-1.753906-89.4375-1.839844-17.566406-11.019532-33.453125-25.316406-43.679687-14.210938-10.144531-32.257813-13.738281-49.425782-9.738281l-43.449218 9.902343c-.082032 0-.238282 0-.316407.078125-4.792969 1.199219-9.660156 1.199219-14.460937 0-.078125 0-.078125 0-.15625 0s-.078125 0-.160156 0l-43.683594-9.902344h-.078125c-17.25-3.910156-35.21875-.40625-49.429688 9.738282-14.296875 10.226562-23.480469 26.113281-25.3125 43.6875-3.441406 33.859375-3.757812 68.195312-.878906 102.058594 1.515625 17.644531 14.773437 32.257812 32.179687 35.375h.15625l43.925782 7.429687c.078125 0 .234375 0 .320312.078125l44.476563 6.308594c.15625 0 .246093 0 .402343.078125l44.480469 4.953125h.238281l44.488282 4.148437h.394531l44.480469 2.722657h.316406l44.796875 1.671874h.328125l44.796875.5625h.398437l44.804688-.804687h.234375l44.804687-1.671875h.398438l45.117188-2.957031h.320312l44.484375-4.152344h.320313l44.476562-5.1875c.082031 0 .242188 0 .320312-.078125l44.238282-6.316406c.082031 0 .246094 0 .328125-.078125l44.238281-7.429688h.15625c17.171875-3.109375 30.1875-17.726562 31.707031-35.457031 2.953125-33.699219 2.632813-67.710938-.800781-101.253906zm-522.269531 130.085937-44.164063-4.871093-44.160156-6.230469-43.6875-7.347657c-5.667969-1.039062-10.140625-5.910156-10.617188-11.65625-2.710937-32.269531-2.472656-64.921874.796876-97.191406 1.042968-10.054687 6.308593-19.160156 14.460937-24.988281 8.054687-5.753906 18.363281-7.828125 28.265625-5.519531l43.679688 9.914062c4.394531 1.03125 8.867187 1.59375 13.339843 1.59375 4.386719 0 8.78125-.5625 13.175781-1.59375.078126 0 .15625 0 .234376-.085937l43.445312-9.90625c9.902344-2.316407 20.210938-.238281 28.265625 5.519531 8.148437 5.820312 13.417969 14.929688 14.460937 24.910156 4.472657 44 3.351563 88.402344-3.359374 132.085938l-9.976563-.636719zm266.085937 6.546875-44.484375 1.679688-44.480469.792968-44.398437-.550781-44.484375-1.601562-7.742188-.476563c1.039063-6.867187 1.914063-13.816406 2.710938-20.765625l11.898438.558594 12.222656.800781h.554687l12.460938.238282 12.222656.5625h.316406l24.996094.5625h25.945313l12.464843-.246094h13.019531l12.214844-.558594 12.460938-.242188h.316406l12.378906-.558593h.316406l11.902344-.800781 11.894532-.550782c.800781 6.945313 1.679687 13.8125 2.71875 20.675782zm176.726563-18.527344-43.925781 6.316407-44.160157 5.1875-44.15625 4.070312-10.546875.722657c-6.625-43.609376-7.824218-87.769532-3.273437-131.691407 1.035156-10.058593 6.308593-19.167969 14.453125-24.910156 8.066406-5.753906 18.367187-7.828125 28.269531-5.519531l43.683594 9.914062c4.390625 1.03125 8.863281 1.59375 13.335937 1.59375s8.945313-.5625 13.339844-1.59375l43.4375-9.914062c9.902344-2.308594 20.207031-.234375 28.273438 5.519531 8.144531 5.828125 13.414062 14.933594 14.453124 24.988281 3.277344 31.949219 3.59375 64.289063.882813 96.3125-.484375 5.90625-4.71875 10.78125-10.222656 11.738282zm0 0"/></svg>