<svg xmlns="http://www.w3.org/2000/svg" width="17.766" height="20.164" viewBox="0 0 17.766 20.164">
    <g transform="translate(-12.447 -7.92)">
        <path
            d="M29.68,22.188,28,20.149a.2.2,0,0,1-.045-.126V14.267a6.514,6.514,0,0,0-6.387-6.338A7.045,7.045,0,0,0,16.6,9.623a5.969,5.969,0,0,0-2.087,4.489v6.125a.2.2,0,0,1-.045.126l-1.489,1.825a1.773,1.773,0,0,0-.359,2.029,2.056,2.056,0,0,0,1.866,1.124H28.16a2.058,2.058,0,0,0,1.877-1.118,1.773,1.773,0,0,0-.356-2.034ZM28.772,23.7a.671.671,0,0,1-.622.377H14.487a.684.684,0,0,1-.612-.377.591.591,0,0,1,.117-.67l.05-.054,1.53-1.859a1.4,1.4,0,0,0,.3-.875V14.112a4.746,4.746,0,0,1,1.573-3.493A5.587,5.587,0,0,1,21.241,9.18H21.5a5.207,5.207,0,0,1,5.089,5.087v5.777a1.4,1.4,0,0,0,.322.888l1.7,2.06.045.046a.58.58,0,0,1,.123.678Z"
            transform="translate(0)"/>
        <path
            d="M30.787,51.992a3.349,3.349,0,0,1-5,0,.628.628,0,0,1,.934-.837,2.093,2.093,0,0,0,3.127,0,.628.628,0,0,1,.934.837Z"
            transform="translate(-6.988 -25.027)"/>
    </g>
</svg>
