<svg xmlns="http://www.w3.org/2000/svg" width="15.381" height="18.799" viewBox="0 0 15.381 18.799"><g transform="translate(-46.545)"><g transform="translate(46.545)"><path d="M153.906,279.4a1.444,1.444,0,0,0-.966-.265,5.463,5.463,0,0,0-.97.073v3.345h.709v-1.213a1.716,1.716,0,0,0,.244,0,1.41,1.41,0,0,0,1.03-.355,1.124,1.124,0,0,0,.291-.8A1.021,1.021,0,0,0,153.906,279.4Zm-.871,1.375a.543.543,0,0,1-.116-.008l.021,0a1.028,1.028,0,0,1-.239,0v-1.017a1.149,1.149,0,0,1,.295-.03c.359,0,.56.188.56.5A.543.543,0,0,1,153.035,280.771Z" transform="translate(-148.1 -268.877)"/><path d="M57.654,0h-9.4a1.709,1.709,0,0,0-1.709,1.709V17.09A1.709,1.709,0,0,0,48.254,18.8H60.217a1.709,1.709,0,0,0,1.709-1.709V4.7Zm3.418,17.09a.855.855,0,0,1-.855.855H48.254a.855.855,0,0,1-.855-.855V1.709a.855.855,0,0,1,.855-.855h7.691V5.127a.855.855,0,0,0,.855.855h4.273V17.09ZM56.8,5.127V.855h.427l3.845,4.273H56.8Z" transform="translate(-46.545)"/><path d="M224.053,279.557a1.94,1.94,0,0,0-1.295-.389,5.959,5.959,0,0,0-.97.073v3.345a5.833,5.833,0,0,0,.812.051,2.171,2.171,0,0,0,1.461-.427,1.773,1.773,0,0,0,.526-1.372A1.542,1.542,0,0,0,224.053,279.557Zm-.222,1.282c0,.808-.427,1.188-1.072,1.184v0a1.245,1.245,0,0,1-.248,0v-2.226a1.405,1.405,0,0,1,.325-.03.94.94,0,0,1,1,1.077Z" transform="translate(-215.355 -268.914)"/><path d="M314.88,283.475h.718v-1.363h1.137v-.624H315.6v-.773h1.218v-.628H314.88Z" transform="translate(-305.027 -269.803)"/></g></g></svg>