<svg xmlns="http://www.w3.org/2000/svg" width="17.452" height="17.415" viewBox="0 0 17.452 17.415"><g transform="translate(-19.316 -8.223)"><path d="M15.923,15.554a2,2,0,0,0-2.829,0l-.965.965a17.4,17.4,0,0,1-3-2.41,17.721,17.721,0,0,1-2.41-3l.965-.965a2,2,0,0,0,0-2.829L5.8,5.436a1.95,1.95,0,0,0-1.4-.586,2,2,0,0,0-1.418.586l-.905.9A4.24,4.24,0,0,0,.978,9.829c.213,2.5,1.851,5.5,4.374,8.028s5.559,4.161,8.055,4.4a5.24,5.24,0,0,0,.559,0A4.041,4.041,0,0,0,16.9,21.166l.9-.905a2,2,0,0,0,.586-1.418,1.95,1.95,0,0,0-.586-1.4Zm.939,3.768-.905.9a3.042,3.042,0,0,1-2.436.666c-2.164-.186-4.92-1.717-7.2-3.994S2.516,11.88,2.309,9.716A3.016,3.016,0,0,1,2.975,7.28l.939-.905a.675.675,0,0,1,.945,0l1.884,1.9a.666.666,0,0,1,0,.939L5.412,10.548a.666.666,0,0,0-.107.805,18.3,18.3,0,0,0,2.882,3.715A18.3,18.3,0,0,0,11.9,17.951a.666.666,0,0,0,.805-.107l1.331-1.331a.666.666,0,0,1,.939,0L16.862,18.4a.651.651,0,0,1,0,.925Z" transform="translate(18.382 3.373)"/></g></svg>