<svg xmlns="http://www.w3.org/2000/svg" width="15" height="18.08" viewBox="0 0 15 18.08"><path d="M62.54,3.144a7.6,7.6,0,0,0-12.308,0,7.149,7.149,0,0,0-.872,6.727,5.724,5.724,0,0,0,1.087,1.75l5.445,6.237a.659.659,0,0,0,.987,0l5.444-6.236A5.73,5.73,0,0,0,63.41,9.875,7.15,7.15,0,0,0,62.54,3.144ZM62.2,9.432a4.49,4.49,0,0,1-.855,1.366l0,0-4.952,5.672L51.431,10.8a4.493,4.493,0,0,1-.857-1.37A5.913,5.913,0,0,1,51.3,3.863a6.28,6.28,0,0,1,10.175,0A5.915,5.915,0,0,1,62.2,9.432Z" transform="translate(-48.886)"/><g transform="translate(3.96 3.751)"><g transform="translate(0)"><path d="M159.294,106.219a3.54,3.54,0,1,0,3.54,3.54A3.544,3.544,0,0,0,159.294,106.219Zm0,5.816a2.276,2.276,0,1,1,2.276-2.276A2.278,2.278,0,0,1,159.294,112.035Z" transform="translate(-155.754 -106.219)"/></g></g></svg>