<svg xmlns="http://www.w3.org/2000/svg" width="21.862" height="23" viewBox="0 0 21.862 23">
  <g id="question" transform="translate(1.999)">
    <path id="Path_400" data-name="Path 400" d="M16.661,3A11.239,11.239,0,0,0,8.932,0,11.239,11.239,0,0,0,1.2,3,9.77,9.77,0,0,0,.3,16.533L-1.19,22.441a.438.438,0,0,0,.162.454.5.5,0,0,0,.31.1.512.512,0,0,0,.2-.039l6.718-2.8a11.649,11.649,0,0,0,2.736.324,11.239,11.239,0,0,0,7.729-3A9.8,9.8,0,0,0,16.661,3ZM8.932,19.58a10.622,10.622,0,0,1-2.648-.334.514.514,0,0,0-.325.023l-5.98,2.489L1.3,16.528a.433.433,0,0,0-.1-.392A9,9,0,0,1-1.03,10.244C-1.03,5.1,3.439.908,8.932.908s9.961,4.188,9.961,9.336S14.425,19.58,8.932,19.58Zm0,0"/>
    <path id="Path_401" data-name="Path 401" d="M117.584,109.977c0-3.562-3.206-6.461-7.147-6.461s-7.147,2.9-7.147,6.461,3.206,6.461,7.147,6.461S117.584,113.539,117.584,109.977Zm-7.147,5.552c-3.387,0-6.142-2.491-6.142-5.552s2.755-5.552,6.142-5.552,6.142,2.491,6.142,5.552S113.824,115.529,110.437,115.529Zm0,0" transform="translate(-101.505 -99.796)"/>
    <path id="Path_402" data-name="Path 402" d="M397.448,377.934a.454.454,0,0,0-.571.294,4.84,4.84,0,0,1-2.28,2.5.454.454,0,1,0,.455.786,5.715,5.715,0,0,0,2.69-3A.454.454,0,0,0,397.448,377.934Zm0,0" transform="translate(-380.751 -364.331)"/>
    <path id="Path_403" data-name="Path 403" d="M351.787,479a.454.454,0,0,0-.592.25l0,0a.454.454,0,0,0,.842.341l0,0A.454.454,0,0,0,351.787,479Zm0,0" transform="translate(-339.578 -461.75)"/>
    <path id="Path_404" data-name="Path 404" d="M263.117,364.414a.661.661,0,0,0-.53.235.889.889,0,0,0,0,1.124.654.654,0,0,0,.53.241.761.761,0,0,0,.565-.241.8.8,0,0,0-.565-1.359Zm0,0" transform="translate(-254.197 -351.318)"/>
    <path id="Path_405" data-name="Path 405" d="M230.308,166.92a2.621,2.621,0,0,0-1.765-.565,2.542,2.542,0,0,0-1.576.447,1.225,1.225,0,0,0-.588.941.506.506,0,0,0,.182.418.627.627,0,0,0,.4.147.453.453,0,0,0,.31-.12,1.427,1.427,0,0,0,.229-.256.86.86,0,0,1,.352-.256,1.526,1.526,0,0,1,.644-.12,1.37,1.37,0,0,1,.879.262.89.89,0,0,1,.328.738,1.163,1.163,0,0,1-.135.541,1.582,1.582,0,0,1-.271.4q-.135.134-.406.366l-.341.279a2.331,2.331,0,0,0-.706,1.838.789.789,0,0,0,.123.512.535.535,0,0,0,.418.14q.588,0,.588-.424a3.406,3.406,0,0,1,.094-.918,1.353,1.353,0,0,1,.494-.635l.225-.188.308-.294q.1-.094.291-.335a2.659,2.659,0,0,0,.3-.435,2.982,2.982,0,0,0,.19-.477,1.9,1.9,0,0,0,.089-.576A1.8,1.8,0,0,0,230.308,166.92Zm0,0" transform="translate(-219.462 -160.377)"/>
  </g>
</svg>
