<svg xmlns="http://www.w3.org/2000/svg" width="20.531" height="20" viewBox="0 0 20.531 20">
  <g id="booking" transform="translate(-5 -8)">
    <path id="XMLID_55_" d="M23.938,9.77h-1.77V8.708A.71.71,0,0,0,21.46,8h-.708a.71.71,0,0,0-.708.708V9.77H10.487V8.708A.71.71,0,0,0,9.779,8H9.071a.71.71,0,0,0-.708.708V9.77H6.593A1.586,1.586,0,0,0,5,11.363V26.407A1.586,1.586,0,0,0,6.593,28H23.938a1.586,1.586,0,0,0,1.593-1.593V11.363A1.586,1.586,0,0,0,23.938,9.77ZM21.46,8.708V11.54h-.708V8.708Zm-11.681,0V11.54H9.071V8.708Zm15.044,17.7a.876.876,0,0,1-.885.885H6.593a.876.876,0,0,1-.885-.885V14.195H24.823Zm0-12.92H5.708V11.363a.876.876,0,0,1,.885-.885h1.77V11.54a.71.71,0,0,0,.708.708h.708a.71.71,0,0,0,.708-.708V10.478h9.558V11.54a.71.71,0,0,0,.708.708h.708a.71.71,0,0,0,.708-.708V10.478h1.77a.876.876,0,0,1,.885.885Z" fill="#221f1f"/>
    <path id="XMLID_69_" d="M54.894,52h-3.54a.355.355,0,0,0-.354.354v3.54a.355.355,0,0,0,.354.354h3.54a.355.355,0,0,0,.354-.354v-3.54A.355.355,0,0,0,54.894,52Zm-.354,3.54H51.708V52.708H54.54Z" transform="translate(-37.858 -36.212)" fill="#221f1f"/>
    <path id="XMLID_72_" d="M21.894,52h-3.54a.355.355,0,0,0-.354.354v3.54a.355.355,0,0,0,.354.354h3.54a.355.355,0,0,0,.354-.354v-3.54A.355.355,0,0,0,21.894,52Zm-.354,3.54H18.708V52.708H21.54Z" transform="translate(-10.699 -36.212)" fill="#221f1f"/>
    <path id="XMLID_75_" d="M87.894,52h-3.54a.355.355,0,0,0-.354.354v3.54a.355.355,0,0,0,.354.354h3.54a.355.355,0,0,0,.354-.354v-3.54A.355.355,0,0,0,87.894,52Zm-.354,3.54H84.708V52.708H87.54Z" transform="translate(-65.018 -36.212)" fill="#221f1f"/>
    <path id="XMLID_86_" d="M56.05,83.583a.342.342,0,0,0-.5,0l-.106.106v-.035a.355.355,0,0,0-.354-.354h-3.54a.355.355,0,0,0-.354.354v3.54a.355.355,0,0,0,.354.354h3.54a.355.355,0,0,0,.354-.354V84.681l.6-.6A.342.342,0,0,0,56.05,83.583ZM54.74,86.84H51.908v-1.4l1.133,1.15a.342.342,0,0,0,.5,0l1.186-1.186V86.84Zm0-2.442-1.451,1.434L52.3,84.84a.356.356,0,0,0-.389-.071v-.743H54.74Z" transform="translate(-38.023 -61.973)" fill="#221f1f"/>
    <path id="XMLID_94_" d="M21.894,84h-3.54a.355.355,0,0,0-.354.354v3.54a.355.355,0,0,0,.354.354h3.54a.355.355,0,0,0,.354-.354v-3.54A.355.355,0,0,0,21.894,84Zm-.354,3.54H18.708V84.708H21.54Z" transform="translate(-10.699 -62.549)" fill="#221f1f"/>
    <path id="XMLID_97_" d="M88.885,84.283a.342.342,0,0,0-.5,0l-.142.142v-.071A.355.355,0,0,0,87.894,84h-3.54a.355.355,0,0,0-.354.354v3.54a.355.355,0,0,0,.354.354h3.54a.355.355,0,0,0,.354-.354V85.416l.637-.637A.342.342,0,0,0,88.885,84.283ZM87.54,87.54H84.708V86.106l1.186,1.186a.342.342,0,0,0,.5,0l1.15-1.168Zm0-2.407-1.4,1.4-1.009-.991a.327.327,0,0,0-.425-.053v-.779H87.54Z" transform="translate(-65.018 -62.549)" fill="#221f1f"/>
  </g>
</svg>
