<svg xmlns="http://www.w3.org/2000/svg" width="21.596" height="10.417" viewBox="0 0 21.596 10.417">
  <g id="Group_15968" data-name="Group 15968" transform="translate(0 0)">
    <g id="layer1" transform="translate(2.979)">
      <path id="path9413" d="M1.142,298.305H15.987l-2.781,2.849c-.8.818.4,2.046,1.2,1.227l2.533-2.6,1.691-1.735a.881.881,0,0,0,0-1.221L14.4,292.5a.835.835,0,0,0-.612-.262.869.869,0,0,0-.586,1.489l2.788,2.849H1.1a.867.867,0,0,0,.044,1.733Z" transform="translate(-0.257 -292.234)" fill="#717171"/>
    </g>
    <g id="layer1-2" data-name="layer1" transform="translate(18.617 10.417) rotate(180)">
      <path id="path9413-2" data-name="path9413" d="M.885,6.071H15.73L12.949,8.92c-.8.818.4,2.046,1.2,1.227l2.533-2.6,1.691-1.735a.881.881,0,0,0,0-1.221L14.147.262A.835.835,0,0,0,13.535,0a.869.869,0,0,0-.586,1.489l2.788,2.849H.841A.867.867,0,0,0,.885,6.071Z" transform="translate(0 0)" fill="#717171"/>
    </g>
  </g>
</svg>
