<?xml version="1.0" encoding="iso-8859-1"?>
<!-- Generator: Adobe Illustrator 18.0.0, SVG Export Plug-In . SVG Version: 6.00 Build 0)  -->
<!DOCTYPE svg PUBLIC "-//W3C//DTD SVG 1.1//EN" "http://www.w3.org/Graphics/SVG/1.1/DTD/svg11.dtd">
<svg version="1.1" id="Capa_1" xmlns="http://www.w3.org/2000/svg" xmlns:xlink="http://www.w3.org/1999/xlink" x="0px" y="0px"
	 viewBox="0 0 217.111 217.111" style="enable-background:new 0 0 217.111 217.111;" xml:space="preserve">
<g>
	<path d="M108.552,0C62.422,0,24.891,37.536,24.891,83.674c0,32.967,13.802,66.314,39.913,96.438
		c19.503,22.499,38.831,35.246,39.644,35.778c1.247,0.815,2.675,1.222,4.104,1.222c1.428,0,2.857-0.407,4.104-1.222
		c0.813-0.532,20.143-13.279,39.647-35.777c26.114-30.124,39.917-63.471,39.917-96.438C192.22,37.536,154.687,0,108.552,0z
		 M108.552,200.402c-15.387-11.466-68.661-55.594-68.661-116.728C39.891,45.807,70.693,15,108.552,15
		c37.864,0,68.668,30.807,68.668,68.674C177.22,144.808,123.942,188.936,108.552,200.402z"/>
	<path d="M114.81,54.628c-2.93-2.929-7.678-2.928-10.607,0c-2.929,2.929-2.928,7.678,0.001,10.607l10.873,10.872H84.174
		c-4.142,0-7.5,3.358-7.5,7.5s3.358,7.5,7.5,7.5h30.902l-10.971,10.97c-2.929,2.929-2.929,7.678,0,10.607
		c1.465,1.464,3.384,2.197,5.303,2.197c1.92,0,3.839-0.732,5.304-2.196l23.775-23.773c1.407-1.407,2.197-3.314,2.197-5.304
		c0-1.989-0.79-3.897-2.197-5.304L114.81,54.628z"/>
</g>
<g>
</g>
<g>
</g>
<g>
</g>
<g>
</g>
<g>
</g>
<g>
</g>
<g>
</g>
<g>
</g>
<g>
</g>
<g>
</g>
<g>
</g>
<g>
</g>
<g>
</g>
<g>
</g>
<g>
</g>
</svg>
