<svg xmlns="http://www.w3.org/2000/svg" width="17.2" height="17.2" viewBox="0 0 17.2 17.2"><path d="M8.6,0a8.6,8.6,0,1,0,8.6,8.6A8.6,8.6,0,0,0,8.6,0ZM3.225,3.365A6.418,6.418,0,0,1,5.912,8.6a6.412,6.412,0,0,1-2.687,5.235A7.5,7.5,0,0,1,3.225,3.365ZM8.6,16.125a7.477,7.477,0,0,1-4.563-1.553A7.487,7.487,0,0,0,6.987,8.6,7.482,7.482,0,0,0,4.031,2.634a7.471,7.471,0,0,1,9.137,0,7.525,7.525,0,0,0,0,11.943A7.477,7.477,0,0,1,8.6,16.125Zm5.375-2.284v-.005a6.423,6.423,0,0,1,0-10.47A7.5,7.5,0,0,1,13.975,13.841Z"/></svg>