<svg id="_21" data-name="21" xmlns="http://www.w3.org/2000/svg" width="16" height="16" viewBox="0 0 16 16" fill="white">
  <path id="Path_423" data-name="Path 423" d="M8,16a8,8,0,1,1,8-8,8.7,8.7,0,0,1-.19,1.76.512.512,0,0,1-1-.22A7.2,7.2,0,0,0,15,8a7,7,0,1,0-3.76,6.21.5.5,0,1,1,.46.88A7.91,7.91,0,0,1,8,16Z"/>
  <path id="Path_424" data-name="Path 424" d="M13.5,14a.5.5,0,0,1-.5-.5v-4a.5.5,0,0,1,1,0v4A.5.5,0,0,1,13.5,14Z"/>
  <circle id="Ellipse_3" data-name="Ellipse 3" cx="0.5" cy="0.5" r="0.5" transform="translate(13 15)"/>
  <path id="Path_425" data-name="Path 425" d="M5.08,10.78a.51.51,0,0,1,.14-.7L8,8.23V3.5a.5.5,0,0,1,1,0v5a.51.51,0,0,1-.22.42l-3,2a.55.55,0,0,1-.7-.14Z"/>
</svg>
