<svg xmlns="http://www.w3.org/2000/svg" width="15.273" height="17.5" viewBox="0 0 15.273 17.5"><g transform="translate(0 0)"><path d="M19.136,19.386a.636.636,0,0,0,.636-.636V12.386a.636.636,0,0,0-1.273,0V18.75A.636.636,0,0,0,19.136,19.386Z" transform="translate(-9.273 -5.705)" fill="#d63d3d"/><path d="M12.136,19.386a.636.636,0,0,0,.636-.636V12.386a.636.636,0,0,0-1.273,0V18.75A.636.636,0,0,0,12.136,19.386Z" transform="translate(-6.727 -5.705)" fill="#d63d3d"/><path d="M16.727,3.523a.636.636,0,1,0,0-1.273H11.636a.636.636,0,1,0,0,1.273Z" transform="translate(-6.545 -2.25)" fill="#d63d3d"/><path d="M4.636,5.25a.636.636,0,1,0,0,1.273h.636V18.232a2.613,2.613,0,0,0,2.609,2.609h7.509A2.613,2.613,0,0,0,18,18.232V6.523h.636a.636.636,0,1,0,0-1.273h-14ZM16.727,6.523V18.232a1.336,1.336,0,0,1-1.336,1.336H7.882a1.336,1.336,0,0,1-1.336-1.336V6.523Z" transform="translate(-4 -3.341)" fill="#d63d3d"/></g></svg>