<svg xmlns="http://www.w3.org/2000/svg" width="15" height="15.96" viewBox="0 0 15 15.96"><path d="M12.86,10.777A4.38,4.38,0,0,0,14.538,7.3,4.179,4.179,0,0,0,10.5,3,4.179,4.179,0,0,0,6.462,7.3a4.38,4.38,0,0,0,1.679,3.48A7.961,7.961,0,0,0,3,18.346a.6.6,0,0,0,.577.614H17.423A.6.6,0,0,0,18,18.346,7.961,7.961,0,0,0,12.86,10.777ZM7.615,7.3A2.985,2.985,0,0,1,10.5,4.228,2.985,2.985,0,0,1,13.385,7.3,2.985,2.985,0,0,1,10.5,10.366,2.985,2.985,0,0,1,7.615,7.3ZM4.18,17.732a6.523,6.523,0,0,1,6.32-6.138,6.523,6.523,0,0,1,6.32,6.138Z" transform="translate(-3 -3)"/></svg>